# xmcd
#
# Track frame offsets:
#	150
#	14754
#	28533
#	46285
#	60146
#	77508
#	91903
#	104888
#	118867
#	138538
#	157258
#	169655
#	187020
#	200081
#	219660
#	233117
#	246069
#
# Disc length: 3473
#
# Revision: 1
# Processed by: cddbd v1.5.1PL2 Copyright (c) Steve Scherf et al.
# Submitted via: kTunes Lite (development) 1.0patch43.20
#
DISCID=f20d8f11
DTITLE=Various Artist - ZMPK03−3
DYEAR=2006
DGENRE=karaoke
TTITLE0=Loretta Lynn - Coal Miner's Daughter (zoom)
TTITLE1=Patsy Cline - I Fall To Pieces (zoom)
TTITLE2=Billie Jo Spears - Sing Me An Old Fashioned Song (zoom)
TTITLE3=John Denver - Annie's Song (zoom)
TTITLE4=Kenny Rogers - Lucille (zoom)
TTITLE5=Glen Campbell - Wichita Lineman (zoom)
TTITLE6=Johnny Cash - Ring Of Fire (zoom)
TTITLE7=Billie Jo Spears - 57 Chevrolet (zoom)
TTITLE8=Keith Whitley - Don't Close Your Eyes (zoom)
TTITLE9=Dr Hook - Sylvia's Mother (zoom)
TTITLE10=Patsy Cline - Walkin' After Midnight (zoom)
TTITLE11=Gretchen Wilson - Redneck Woman (zoom)
TTITLE12=Dolly Parton - Jolene (zoom)
TTITLE13=Jimmy Buffet - Margaritaville (zoom)
TTITLE14=Kenny Rogers - Ruby (zoom)
TTITLE15=Johnny Cash - I Walk The Line (zoom)
TTITLE16=Crystal Gayle - Talking In Your Sleep (zoom)
EXTD=
EXTT0=
EXTT1=
EXTT2=
EXTT3=
EXTT4=
EXTT5=
EXTT6=
EXTT7=
EXTT8=
EXTT9=
EXTT10=
EXTT11=
EXTT12=
EXTT13=
EXTT14=
EXTT15=
EXTT16=
PLAYORDER=
